<svg width="878" height="79" viewBox="0 0 878 79" fill="none" xmlns="http://www.w3.org/2000/svg">
<path d="M69.5294 47.6015C64.6861 47.6015 60.9894 43.913 60.9894 39.1563C60.9894 34.3997 64.6861 30.7065 69.5294 30.7065C74.3727 30.7065 77.9871 34.3947 77.9871 39.1563C77.9871 43.918 74.2904 47.6015 69.5294 47.6015ZM77.658 22.421C75.4419 19.5495 71.339 17.582 66.5778 17.582C55.3334 17.582 46.9531 27.5064 46.9531 39.1515C46.9531 50.7967 55.2462 60.7209 66.5778 60.7209C71.339 60.7209 75.4419 58.8357 77.658 55.7999V59.6526H91.6944V18.5682H77.658V22.421Z" fill="#7D2EFF"/>
<path d="M121.824 17.583C117.145 17.583 113.536 19.391 110.991 22.5862V0.359375H96.543V59.6585H111.073V37.7603C111.073 33.4967 113.124 30.954 116.41 30.954C119.695 30.954 121.418 33.1679 121.418 37.272V59.6633H135.947V33.8303C135.947 23.8237 130.533 17.5927 121.829 17.5927L121.824 17.583Z" fill="#7D2EFF"/>
<path d="M207.446 47.437C202.685 47.437 199.24 43.7486 199.24 39.1515C199.24 34.5544 202.685 30.866 207.446 30.866C212.207 30.866 215.656 34.5592 215.656 39.1515C215.656 43.7439 212.207 47.437 207.446 47.437ZM207.446 17.582C194.89 17.582 185.445 26.849 185.445 39.1515C185.445 51.4541 194.885 60.7209 207.446 60.7209C220.006 60.7209 229.451 51.4541 229.451 39.1515C229.451 26.849 220.012 17.582 207.446 17.582Z" fill="#7D2EFF"/>
<path d="M160.981 47.437C156.22 47.437 152.775 43.7486 152.775 39.1515C152.775 34.5544 156.22 30.866 160.981 30.866C165.742 30.866 169.192 34.5592 169.192 39.1515C169.192 43.7439 165.742 47.437 160.981 47.437ZM160.981 17.582C148.425 17.582 138.98 26.849 138.98 39.1515C138.98 51.4541 148.42 60.7209 160.981 60.7209C173.542 60.7209 182.986 51.4541 182.986 39.1515C182.986 26.849 173.546 17.582 160.981 17.582Z" fill="#7D2EFF"/>
<path d="M34.7256 18.5703L25.2035 42.6825L15.7637 18.5703H0L17.5685 59.9884L11.2494 74.911H26.6794L50.0781 18.5703H34.7256Z" fill="#7D2EFF"/>
<path d="M241.025 41.2012C235.44 41.2012 231.25 45.7112 231.25 50.961C231.25 56.2108 235.276 60.3923 240.695 60.3923C246.114 60.3923 250.464 55.9643 250.464 50.6322C250.464 45.3003 246.44 41.2012 241.025 41.2012Z" fill="#7D2EFF"/>
<path d="M251.938 0.359375L236.504 37.5959H253.744L269.179 0.359375H251.938Z" fill="#7D2EFF"/>
<path d="M286.4 19.3594H300.96L300.96 23.9194C303.84 20.3194 308.08 18.3194 313.04 18.3194C323.44 18.3194 331.44 27.4394 331.44 39.3594C331.44 51.1994 323.44 60.3994 313.04 60.3994C308.08 60.3994 303.76 58.6394 300.96 55.0394L300.96 75.9994H286.4L286.4 19.3594ZM316.8 39.3594C316.8 34.9594 313.12 31.3594 308.72 31.3594C304.24 31.3594 300.56 34.9594 300.56 39.3594C300.56 43.7594 304.24 47.3594 308.72 47.3594C313.12 47.3594 316.8 43.7594 316.8 39.3594ZM373.964 19.3594L373.965 59.3594H359.325L359.325 54.4794C357.085 58.3994 353.165 60.4794 348.285 60.4794C339.725 60.4794 334.445 54.4794 334.445 44.7994L334.444 19.3594H349.084L349.085 40.7994C349.085 44.8794 350.925 47.1194 354.125 47.1194C357.245 47.1194 359.325 44.7994 359.325 40.6394L359.324 19.3594H373.964ZM394.092 59.3594H379.532L379.531 3.35937H394.091L394.091 23.9194C396.971 20.3194 401.211 18.3194 406.171 18.3194C416.571 18.3194 424.571 27.4394 424.571 39.3594C424.571 51.1994 416.572 60.3994 406.172 60.3994C401.212 60.3994 396.892 58.6394 394.092 55.0394L394.092 59.3594ZM409.931 39.3594C409.931 34.9594 406.251 31.3594 401.851 31.3594C397.371 31.3594 393.691 34.9594 393.691 39.3594C393.691 43.7594 397.371 47.3594 401.851 47.3594C406.251 47.3594 409.931 43.7594 409.931 39.3594ZM428.05 3.35937H442.69L442.69 59.3594H428.05L428.05 3.35937ZM463.008 59.3594H448.368L448.367 19.3594H463.007L463.008 59.3594ZM463.887 8.07937C463.887 12.3994 460.287 16.1594 455.647 16.1594C451.167 16.1594 447.487 12.4794 447.487 8.07937C447.487 3.67937 451.167 -0.000628471 455.647 -0.000628471C460.287 -0.000628471 463.887 3.75937 463.887 8.07937ZM501.641 46.5594C501.642 55.2794 494.602 60.4794 483.722 60.4794C476.762 60.4794 469.962 58.4794 465.162 55.0394L470.921 44.8794C474.841 47.3594 479.881 48.9594 483.801 48.9594C485.961 48.9594 487.161 48.4794 487.161 47.2794C487.161 46.1594 485.961 45.7594 482.921 45.0394L480.841 44.5594C471.401 42.3994 467.241 38.7194 467.241 31.9194C467.241 23.6794 474.041 18.3194 484.441 18.3194C490.281 18.3194 495.641 19.9194 501.241 23.0394L496.201 33.2794C492.041 31.0394 487.801 29.6794 484.601 29.6794C482.441 29.6794 481.641 30.1594 481.641 31.2794C481.641 32.2394 482.841 32.5594 486.121 33.4394L488.281 33.9994C497.641 36.3994 501.641 40.3194 501.641 46.5594ZM519.106 38.0794L519.106 59.3594H504.466L504.465 3.35937H519.105L519.106 24.2394C521.346 20.3194 525.346 18.2394 530.226 18.2394C538.786 18.2394 544.146 24.2394 544.146 33.9194L544.146 59.3594H529.506L529.506 37.6794C529.506 33.8394 527.586 31.5994 524.466 31.5994C521.186 31.5994 519.106 34.0794 519.106 38.0794ZM575.551 45.2794L588.111 49.6794C584.831 56.5594 578.031 60.4794 568.991 60.4794C556.111 60.4794 547.231 51.9194 547.231 39.3594C547.231 27.2794 556.431 18.2394 568.511 18.2394C580.991 18.2394 589.391 26.8794 589.391 40.0794C589.391 41.3594 589.311 42.3194 589.231 43.0394H561.551C561.871 46.4794 565.071 48.7994 568.911 48.7994C572.111 48.7994 574.031 47.6794 575.551 45.2794ZM561.631 34.6394H575.231C574.911 31.5994 572.191 29.4394 568.431 29.4394C564.751 29.4394 561.951 31.6794 561.631 34.6394ZM620.041 18.7194L620.041 33.7594C619.001 33.3594 617.721 33.1994 616.521 33.1994C610.441 33.1994 607.001 37.3594 607.001 44.7994L607.001 59.3594H592.441L592.441 19.3594H606.921L606.921 25.6794C609.081 21.0394 612.761 18.3994 617.881 18.3994C618.761 18.3994 619.641 18.5594 620.041 18.7194ZM665.447 54.2394C663.047 57.0394 658.807 59.0394 653.847 59.0394C643.047 59.0394 635.287 50.5594 635.287 38.9594C635.287 27.1194 643.127 18.3194 653.847 18.3194C658.967 18.3194 663.047 20.3994 665.447 23.5994L665.447 19.3594H679.847L679.847 56.6394C679.847 69.0394 671.767 78.1594 656.487 78.1594C646.487 78.1594 638.887 73.9194 635.927 67.3594L647.607 60.8794C649.367 64.0794 652.647 66.1594 656.567 66.1594C662.247 66.1594 665.447 62.7194 665.447 56.4794L665.447 54.2394ZM665.847 38.9594C665.847 34.5594 662.167 31.1194 657.927 31.1194C653.687 31.1194 650.007 34.5594 650.007 38.9594C650.007 43.3594 653.687 46.7994 657.927 46.7994C662.167 46.7994 665.847 43.3594 665.847 38.9594ZM724.699 19.3594L724.699 59.3594H710.059L710.059 54.4794C707.819 58.3994 703.899 60.4794 699.019 60.4794C690.459 60.4794 685.179 54.4794 685.179 44.7994L685.179 19.3594H699.819L699.819 40.7994C699.819 44.8794 701.659 47.1194 704.859 47.1194C707.979 47.1194 710.059 44.7994 710.059 40.6394L710.059 19.3594H724.699ZM744.986 59.3594H730.346L730.346 19.3594H744.986L744.986 59.3594ZM745.866 8.07937C745.866 12.3994 742.266 16.1594 737.626 16.1594C733.146 16.1594 729.466 12.4794 729.466 8.07937C729.465 3.67937 733.145 -0.000628471 737.625 -0.000628471C742.265 -0.000628471 745.865 3.75937 745.866 8.07937ZM778.979 3.35937H793.539L793.54 59.3594H778.98L778.98 55.0394C776.1 58.5594 771.86 60.3994 766.9 60.3994C756.5 60.3994 748.5 51.2794 748.5 39.3594C748.499 27.5194 756.499 18.3194 766.899 18.3194C771.859 18.3194 776.179 20.0794 778.979 23.6794L778.979 3.35937ZM763.14 39.3594C763.14 43.7594 766.82 47.3594 771.22 47.3594C775.7 47.3594 779.38 43.7594 779.38 39.3594C779.379 34.9594 775.699 31.3594 771.219 31.3594C766.819 31.3594 763.139 34.9594 763.14 39.3594ZM825.338 45.2794L837.898 49.6794C834.618 56.5594 827.818 60.4794 818.778 60.4794C805.898 60.4794 797.018 51.9194 797.018 39.3594C797.018 27.2794 806.218 18.2394 818.298 18.2394C830.778 18.2394 839.178 26.8794 839.178 40.0794C839.178 41.3594 839.098 42.3194 839.018 43.0394H811.338C811.658 46.4794 814.858 48.7994 818.698 48.7994C821.898 48.7994 823.818 47.6794 825.338 45.2794ZM811.418 34.6394H825.018C824.698 31.5994 821.978 29.4394 818.218 29.4394C814.538 29.4394 811.738 31.6794 811.418 34.6394ZM875.579 46.5594C875.579 55.2794 868.539 60.4794 857.659 60.4794C850.699 60.4794 843.899 58.4794 839.099 55.0394L844.859 44.8794C848.779 47.3594 853.819 48.9594 857.739 48.9594C859.899 48.9594 861.099 48.4794 861.099 47.2794C861.099 46.1594 859.899 45.7594 856.859 45.0394L854.779 44.5594C845.339 42.3994 841.179 38.7194 841.179 31.9194C841.179 23.6794 847.979 18.3194 858.379 18.3194C864.219 18.3194 869.579 19.9194 875.179 23.0394L870.139 33.2794C865.979 31.0394 861.739 29.6794 858.539 29.6794C856.379 29.6794 855.579 30.1594 855.579 31.2794C855.579 32.2394 856.779 32.5594 860.059 33.4394L862.219 33.9994C871.579 36.3994 875.579 40.3194 875.579 46.5594Z" fill="black"/>
</svg>
